<svg xmlns="http://www.w3.org/2000/svg" version="1.1" xmlns:xlink="http://www.w3.org/1999/xlink" xmlns:svgjs="http://svgjs.dev/svgjs" width="2000" height="1252" viewBox="0 0 2000 1252"><g transform="matrix(1,0,0,1,-1.2121212121212466,-2.01935483870966)"><svg viewBox="0 0 396 248" data-background-color="#ffffff" preserveAspectRatio="xMidYMid meet" height="1252" width="2000" xmlns="http://www.w3.org/2000/svg" xmlns:xlink="http://www.w3.org/1999/xlink"><g id="tight-bounds" transform="matrix(1,0,0,1,0.2400000000000091,0.4000000000000057)"><svg viewBox="0 0 395.52 247.2" height="247.2" width="395.52"><g><svg></svg></g><g><svg viewBox="0 0 395.52 247.2" height="247.2" width="395.52"><mask id="a506999b-a5f5-4a1a-97fa-72914a17e57c"><rect width="640" height="400" fill="white"></rect><g transform="matrix(1,0,0,1,55.23027027027024,55.32401021536948)"><svg viewBox="0 0 285.0594594594595 136.55197956926102" height="136.55197956926102" width="285.0594594594595"><g><svg viewBox="0 0 285.0594594594595 136.55197956926102" height="136.55197956926102" width="285.0594594594595"><g><svg viewBox="0 0 285.0594594594595 136.55197956926102" height="136.55197956926102" width="285.0594594594595"><g><svg viewBox="0 0 285.0594594594595 136.55197956926102" height="136.55197956926102" width="285.0594594594595"><g id="SvgjsG4958"><svg viewBox="0 0 285.0594594594595 136.55197956926102" height="136.55197956926102" width="285.0594594594595" id="SvgjsSvg4957"><g><svg viewBox="0 0 285.0594594594595 136.55197956926102" height="136.55197956926102" width="285.0594594594595"><g transform="matrix(1,0,0,1,0,0)"><svg width="285.0594594594595" viewBox="-1.65 -42.5 99.94000000000001 48.4" height="136.55197956926102" data-palette-color="#009ef7"><path d="M3.85-34.85L23.55-34.85 23.55-31.15 8.4-31.15 8.4-19.4 20.7-19.4 20.7-15.7 8.4-15.7 8.4 0 3.85 0 3.85-34.85ZM29.05-37L33.6-37 33.6 0 29.05 0 29.05-37ZM61.1-27.4L65.65-27.4 65.65 0 61.1 0 61.1-4.05Q59.8-1.95 57.47-0.78 55.15 0.4 52.35 0.4L52.35 0.4Q49.15 0.4 46.6-0.93 44.05-2.25 42.57-4.9 41.1-7.55 41.1-11.35L41.1-11.35 41.1-27.4 45.6-27.4 45.6-11.95Q45.6-7.9 47.65-5.73 49.7-3.55 53.25-3.55L53.25-3.55Q56.9-3.55 59-5.8 61.1-8.05 61.1-12.35L61.1-12.35 61.1-27.4ZM92.79 0L87.64 0 81.14-10.2 74.89 0 70.14 0 78.99-13.6 70.14-27.4 75.29-27.4 81.79-17.25 87.99-27.4 92.74-27.4 83.94-13.85 92.79 0Z" opacity="1" transform="matrix(1,0,0,1,0,0)" fill="black" class="wordmark-text-0" id="SvgjsPath4956" stroke-width="10" stroke="black" stroke-linejoin="round"></path></svg></g></svg></g></svg></g></svg></g></svg></g></svg></g></svg></g></mask><g transform="matrix(1,0,0,1,55.23027027027024,55.32401021536948)"><svg viewBox="0 0 285.0594594594595 136.55197956926102" height="136.55197956926102" width="285.0594594594595"><g><svg viewBox="0 0 285.0594594594595 136.55197956926102" height="136.55197956926102" width="285.0594594594595"><g><svg viewBox="0 0 285.0594594594595 136.55197956926102" height="136.55197956926102" width="285.0594594594595"><g><svg viewBox="0 0 285.0594594594595 136.55197956926102" height="136.55197956926102" width="285.0594594594595"><g id="textblocktransform"><svg viewBox="0 0 285.0594594594595 136.55197956926102" height="136.55197956926102" width="285.0594594594595" id="textblock"><g><svg viewBox="0 0 285.0594594594595 136.55197956926102" height="136.55197956926102" width="285.0594594594595"><g transform="matrix(1,0,0,1,0,0)"><svg width="285.0594594594595" viewBox="-1.65 -42.5 99.94000000000001 48.4" height="136.55197956926102" data-palette-color="#009ef7"><path d="M3.85-34.85L23.55-34.85 23.55-31.15 8.4-31.15 8.4-19.4 20.7-19.4 20.7-15.7 8.4-15.7 8.4 0 3.85 0 3.85-34.85ZM29.05-37L33.6-37 33.6 0 29.05 0 29.05-37ZM61.1-27.4L65.65-27.4 65.65 0 61.1 0 61.1-4.05Q59.8-1.95 57.47-0.78 55.15 0.4 52.35 0.4L52.35 0.4Q49.15 0.4 46.6-0.93 44.05-2.25 42.57-4.9 41.1-7.55 41.1-11.35L41.1-11.35 41.1-27.4 45.6-27.4 45.6-11.95Q45.6-7.9 47.65-5.73 49.7-3.55 53.25-3.55L53.25-3.55Q56.9-3.55 59-5.8 61.1-8.05 61.1-12.35L61.1-12.35 61.1-27.4ZM92.79 0L87.64 0 81.14-10.2 74.89 0 70.14 0 78.99-13.6 70.14-27.4 75.29-27.4 81.79-17.25 87.99-27.4 92.74-27.4 83.94-13.85 92.79 0Z" opacity="1" transform="matrix(1,0,0,1,0,0)" fill="#ffffff" class="wordmark-text-0" data-fill-palette-color="primary" id="text-0"></path></svg></g></svg></g></svg></g></svg></g></svg></g></svg></g></svg></g><g mask="url(#a506999b-a5f5-4a1a-97fa-72914a17e57c)"><g transform="matrix(3.9351606483935155, 0, 0, 3.9351606483935155, 1, 10.865517744822583)"><svg xmlns="http://www.w3.org/2000/svg" xmlns:xlink="http://www.w3.org/1999/xlink" version="1.1" x="0" y="0" viewBox="0 21.352 100.001 57.29599999999999" enable-background="new 0 0 100 100" xml:space="preserve" id="none" width="100.001" height="57.29599999999999" class="icon-none" data-fill-palette-color="accent"><path d="M99.316 65.122C93.476 65.122 89.746 55.259 85.8 44.814 81.44 33.281 76.933 21.352 68.793 21.352 61.19 21.352 56.718 34.282 51.981 47.968L51.078 50.571C46.469 56.201 41.454 61.538 33.219 61.538 24.366 61.538 20.226 54.468 16.222 47.632 13.234 42.52 7.624 34.082 0.685 34.082 0.305 34.082 0 34.443 0 34.883S0.305 35.674 0.686 35.674C7.893 35.674 11.497 45.449 15.312 55.796 19.45 67.031 23.735 78.648 33.22 78.648 42.654 78.648 47.927 63.941 52.957 49.419 57.52 43.77 61.851 38.462 68.794 38.462 76.309 38.462 80.674 45.781 84.893 52.857 87.979 58.028 93.75 66.714 99.317 66.714 99.693 66.714 100.001 66.358 100.001 65.918S99.692 65.122 99.316 65.122M84.863 47.197C85.161 47.91 85.454 48.618 85.752 49.321 85.659 49.121 85.566 48.925 85.474 48.725 81.158 39.374 76.69 29.706 68.794 29.706 63.398 29.706 59.57 34.662 56.055 41.137 59.639 32.958 63.448 26.523 68.794 26.523 76.27 26.523 80.64 37.036 84.863 47.197M16.25 53.403C15.979 52.734 15.708 52.075 15.439 51.416 15.505 51.562 15.571 51.709 15.637 51.851 19.739 60.918 23.979 70.293 33.22 70.293 39.673 70.293 44.177 65.132 48.017 58.486 44.147 66.831 39.665 73.476 33.22 73.476 24.404 73.477 20.256 63.271 16.25 53.403M14.758 48.228C15.053 48.804 15.349 49.38 15.644 49.966 19.748 58.003 23.991 66.314 33.22 66.314 39.941 66.314 44.551 61.812 48.501 56.158 44.526 63.502 39.941 69.498 33.22 69.498 24.394 69.498 20.249 60.343 16.245 51.485 15.747 50.386 15.254 49.297 14.758 48.228M68.794 30.508C76.279 30.508 80.645 39.961 84.873 49.102 85.386 50.215 85.894 51.319 86.406 52.403 86.093 51.807 85.781 51.202 85.468 50.601 81.147 42.286 76.679 33.687 68.793 33.687 63.139 33.687 59.208 38.072 55.536 43.643 59.268 36.377 63.184 30.508 68.794 30.508M68.794 22.944C74.512 22.944 78.408 30.068 81.851 38.506 78.477 31.411 74.546 25.733 68.794 25.733 64.609 25.733 61.372 29.288 58.486 34.498 61.431 27.729 64.658 22.944 68.794 22.944M33.22 62.334C40.21 62.334 44.917 58.662 48.979 54.165 44.897 60.347 40.222 65.518 33.22 65.518 24.382 65.518 20.239 57.403 16.235 49.561A140 140 0 0 0 13.967 45.235C14.536 46.163 15.095 47.115 15.659 48.077 19.763 55.088 24.006 62.334 33.22 62.334M33.22 77.061C26.43 77.061 22.446 70.088 19.114 61.851 22.415 68.746 26.489 74.273 33.22 74.273 38.362 74.273 42.263 70.352 45.576 64.742 42.236 71.904 38.35 77.061 33.22 77.061M68.794 37.666C62.91 37.666 58.877 41.26 55.068 45.708 58.93 39.57 62.929 34.482 68.794 34.482 76.294 34.482 80.654 42.885 84.878 51.01 85.508 52.216 86.133 53.417 86.763 54.579 86.328 53.861 85.889 53.134 85.454 52.401 81.133 45.156 76.665 37.666 68.794 37.666" fill="#ffffff" data-fill-palette-color="accent"></path></svg></g></g></svg></g><defs></defs></svg><rect width="395.52" height="247.2" fill="none" stroke="none" visibility="hidden"></rect></g></svg></g></svg>